<svg viewBox="0 0 499 131" xmlns="http://www.w3.org/2000/svg" xmlns:xlink="http://www.w3.org/1999/xlink"><radialGradient id="a" cx="0%" cy="0%" gradientTransform="matrix(.64608359 .6910901 -.61776613 .72276861 0 0)" r="109.183375%"><stop offset="0" stop-color="#fff"/><stop offset="0" stop-color="#ffebeb"/><stop offset=".541903409" stop-color="#eaacb8"/><stop offset="1" stop-color="#7acbf5"/></radialGradient><mask id="b" fill="#fff"><path d="m91.2087232 0v28.2650949l-43.9996386.0003558c-2.079895 11.0345204-11.7646682 19.3814236-23.3979577 19.3814236-13.1505223 0-23.8111269-10.6661161-23.8111269-23.8234371 0-13.1573211 10.6606046-23.8234372 23.8111269-23.8234372.1348514 0 .269441.00112158.4037599.00335593z" fill="#fff" fill-rule="evenodd"/></mask><g fill="none" fill-rule="evenodd"><path d="m86.6101808 7.94901757 28.3351952-7.42283132c8.548113-2.23930684 17.293044 2.87499062 19.532351 11.42310305.34675 1.3236489.522273 2.6863103.522273 4.0546237v81.2459718c0 7.2749652-4.907882 13.6341492-11.945376 15.4777272l-28.3351958 7.422831c-8.5481125 2.239307-17.2930437-2.874991-19.5323505-11.423103-.3467498-1.323649-.5222732-2.68631-.5222732-4.054624v-81.2459716c0-7.2749648 4.9078815-13.63414905 11.9453763-15.47772683zm-66.5555571-7.42283132 28.3351955 7.42283132c7.0374948 1.84357778 11.9453763 8.20276203 11.9453763 15.47772683v81.2459716c0 8.836556-7.163444 16-16 16-1.3683134 0-2.7309748-.175523-4.0546237-.522273l-28.3351955-7.422831c-7.03749478-1.843578-11.9453763-8.202762-11.9453763-15.4777272v-81.2459718c0-8.83655596 7.163444-15.99999996 16-15.99999996 1.3683134 0 2.7309749.17552345 4.0546237.52227321z" fill="url(#a)" transform="translate(0 8.668969)"/><g fill="#7acbf5" transform="matrix(0 -1 1 0 189.019481 129.707296)"><path d="m80.8142238 40.6800025c7.9219123.2285828 14.2886214 6.5999361 14.5114274 14.5220129l1.6810135 59.7700016c.207096 7.36349-5.5943079 13.500663-12.9577983 13.707759-.2531789.00712-.5065093.007028-.7596829-.000277-7.9219123-.228583-14.2886214-6.599936-14.5114274-14.522013l-1.6810135-59.7700013c-.207096-7.3634903 5.5943079-13.5006632 12.9577983-13.7077591.2531789-.0071206.5065093-.0070283.7596829.0002769z" fill-opacity=".8" transform="matrix(-.64278761 .76604444 .76604444 .64278761 69.92507 -32.606596)"/><rect height="30.687817" rx="15.343909" width="121.073526" y="91.090986"/><path d="m60.8597975-40.5113905c8.4742068 0 15.3439087 6.8697019 15.3439087 15.3439087v90.3862979c0 8.4742068-6.8697019 15.3439087-15.3439087 15.3439087-8.4742067 0-15.3439087-6.8697019-15.3439087-15.3439087v-90.3862979c0-8.4742068 6.869702-15.3439087 15.3439087-15.3439087z" transform="matrix(0 1 -1 0 80.885465 -40.834131)"/><path d="m82.427828-4.67399413c7.9222432.24294712 14.2783524 6.62580084 14.4880332 14.54899431l1.7292339 65.34244732c.1948586 7.3631098-5.6161571 13.4900537-12.9792668 13.6849123-.2538373.0067176-.5078148.0061844-.7616217-.0015989-7.9222432-.2429472-14.2783524-6.6258009-14.4880331-14.5489944l-1.7292339-65.34244729c-.1948587-7.36310975 5.616157-13.49005369 12.9792668-13.68491231.2538373-.00671759.5078147-.00618439.7616216.00159897z" transform="matrix(.64278761 .76604444 -.76604444 .64278761 62.147261 -49.048465)"/></g><g fill="#eaacb8" transform="matrix(-1 0 0 -1 498.999999 130.007283)"><rect height="29.072669" rx="14.536335" width="83.944312" y="92.063452"/><rect fill-opacity=".8" height="29.072669" rx="14.536335" width="83.944312" y="46.031726"/><path d="m23.376251 45.2320806h90.464161c8.469828 0 15.33598 6.8661521 15.33598 15.33598s-6.866152 15.33598-15.33598 15.33598h-90.464161c-8.4698279 0-15.33597998-6.8661521-15.33597998-15.33598s6.86615208-15.33598 15.33597998-15.33598z" transform="matrix(0 1 -1 0 129.176393 -8.040271)"/></g><g fill="#afbcd8"><path d="m40.9956886 18.7188256h37.4376512c7.9483242 0 14.3917142 6.4433899 14.3917142 14.3917142s-6.44339 14.3917142-14.3917142 14.3917142h-37.4376512c-7.9483243 0-14.3917142-6.4433899-14.3917142-14.3917142s6.4433899-14.3917142 14.3917142-14.3917142z" fill-opacity=".8" transform="translate(302.875936 37.158652)"/><g mask="url(#b)" transform="matrix(0 -1 1 0 348.22454 129.983706)"><path d="m45.4635268-30.7485972c7.8762014 0 14.2611242 6.3849228 14.2611242 14.2611242v61.4971944c0 7.8762014-6.3849228 14.2611241-14.2611242 14.2611241s-14.2611242-6.3849227-14.2611242-14.2611241v-61.4971944c0-7.8762014 6.3849228-14.2611242 14.2611242-14.2611242z" transform="matrix(0 1 -1 0 59.724651 -31.202403)"/><path d="m15.4577409.29925511c8.5370746 0 15.4577409 6.92066633 15.4577409 15.45774089v9.0156659c0 8.5370746-6.9206663 15.4577409-15.4577409 15.4577409-8.53707457 0-15.4577409-6.9206663-15.4577409-15.4577409v-9.0156659c0-8.53707456 6.92066633-15.45774089 15.4577409-15.45774089z"/></g></g></g></svg>
