<svg viewBox="0 0 627 202" xmlns="http://www.w3.org/2000/svg"><radialGradient id="a" cx="0%" cy="0%" gradientTransform="matrix(.64608 .69109 -.61777 .72277 0 0)" r="109.183%"><stop offset="0" stop-color="#fff"/><stop offset="0" stop-color="#ffebeb"/><stop offset=".542" stop-color="#eaacb8"/><stop offset="1" stop-color="#7acbf5"/></radialGradient><mask id="b" fill="#fff"><path d="M91.209 0v28.265h-44C45.13 39.3 35.444 47.647 23.811 47.647 10.661 47.647 0 36.98 0 23.823 0 10.666 10.66 0 23.811 0c.135 0 .27.001.404.003z" fill-rule="evenodd"/></mask><g fill="none" fill-rule="evenodd"><path d="M86.61 7.949 114.945.526c8.548-2.24 17.293 2.875 19.533 11.423a16 16 0 0 1 .522 4.055V97.25a16 16 0 0 1-11.945 15.478l-28.336 7.422c-8.548 2.24-17.293-2.875-19.532-11.423a16 16 0 0 1-.522-4.054V23.427A16 16 0 0 1 86.61 7.949zM20.055.526 48.39 7.95a16 16 0 0 1 11.945 15.478v81.246c0 8.836-7.163 16-16 16a16 16 0 0 1-4.054-.523l-28.336-7.422A16 16 0 0 1 0 97.25V16.004c0-8.837 7.163-16 16-16a16 16 0 0 1 4.055.522z" fill="url(#a)" transform="translate(64 44.669)"/><g fill="#7acbf5" transform="rotate(-90 209.363 -43.656)"><path d="M49.141 55.45c-4.917 6.215-4.128 15.187 1.797 20.45l44.706 39.707c5.508 4.892 13.938 4.393 18.83-1.115.168-.189.33-.383.488-.582 4.917-6.215 4.129-15.188-1.797-20.45L68.46 53.751c-5.507-4.892-13.938-4.392-18.83 1.115-.168.19-.33.384-.488.582z" fill-opacity=".8"/><rect height="30.688" rx="15.344" width="121.074" y="91.091"/><path d="M121.397 20.026c0 8.474-6.87 15.344-15.344 15.344H15.667C7.192 35.37.323 28.5.323 20.026c0-8.475 6.87-15.344 15.344-15.344h90.386c8.474 0 15.344 6.87 15.344 15.344z"/><path d="M118.711 11.09c4.907 6.225 4.103 15.197-1.832 20.45L67.935 74.868c-5.515 4.882-13.944 4.369-18.826-1.146-.168-.19-.331-.385-.488-.585-4.907-6.225-4.103-15.197 1.832-20.45L99.397 9.36c5.515-4.882 13.944-4.37 18.826 1.146.168.19.331.385.488.585z"/></g><g fill="#eaacb8" transform="rotate(180 281.5 83.004)"><rect height="29.073" rx="14.536" width="83.944" y="92.063"/><rect fill-opacity=".8" height="29.073" rx="14.536" width="83.944" y="46.032"/><path d="M83.944 15.336V105.8c0 8.47-6.866 15.336-15.336 15.336S53.272 114.27 53.272 105.8V15.336C53.272 6.866 60.14 0 68.608 0s15.336 6.866 15.336 15.336z"/></g><g fill="#afbcd8"><path d="M407.872 91.877h37.437c7.949 0 14.392 6.444 14.392 14.392s-6.443 14.392-14.392 14.392h-37.437c-7.949 0-14.392-6.443-14.392-14.392s6.443-14.392 14.392-14.392z" fill-opacity=".8"/><g mask="url(#b)" transform="rotate(-90 289.104 -123.12)"><path d="M90.473 14.261c0 7.876-6.385 14.261-14.26 14.261H14.714c-7.876 0-14.261-6.385-14.261-14.26S6.839 0 14.714 0h61.498c7.876 0 14.261 6.385 14.261 14.261z"/><path d="M15.458.3c8.537 0 15.457 6.92 15.457 15.457v9.016c0 8.537-6.92 15.457-15.457 15.457S0 33.31 0 24.773v-9.016C0 7.22 6.92.299 15.458.299z"/></g></g></g></svg>
